# xmcd
#
# Track frame offsets: 
#        150
#        16319
#        38753
#        60801
#        95828
#        111513
#        142506
#        169501
#        186990
#        202176
#        229079
#        250463
#
# Disc length: 3680 seconds
#
# Revision: 2
# Processed by: cddbd v1.5.2PL0 Copyright (c) Steve Scherf et al.
# Submitted via: ExactAudioCopyFreeDBPlugin 1.0
#
DISCID=9f0e5e0c
DTITLE=Various Artist - Looking Into You: A Tribute to Jackson Browne
DTITLE=Various Artist - CD1
DYEAR=2014
DGENRE=Americana
TTITLE0=Don Henley w. Blind Pilot - These Days
TTITLE1=Bonnie Raitt and David Lindley - Everywhere I Go
TTITLE2=Bob Schneider - Running on Empty
TTITLE3=Indigo Girls - Fountain of Sorrow
TTITLE4=Paul Thorn - Doctor My Eyes
TTITLE5=Jimmy LaFave - For Everyman
TTITLE6=Griffin House - Barricades of Heaven
TTITLE7=Lyle Lovett - Our Lady of the Well
TTITLE8=Ben Harper - Jamaica Say You Will
TTITLE9=Eliza Gilkyson - Before the Deluge
TTITLE10=Venice - For a Dancer
TTITLE11=Kevin Welch - Looking Into You
EXTD=
EXTT0=
EXTT1=
EXTT2=
EXTT3=
EXTT4=
EXTT5=
EXTT6=
EXTT7=
EXTT8=
EXTT9=
EXTT10=
EXTT11=
PLAYORDER=
